<?xml version="1.0" encoding="utf-8"?>
<svg xmlns="http://www.w3.org/2000/svg" style="margin: auto; display: block; shape-rendering: auto; background: none;" width="183" height="59" preserveAspectRatio="xMidYMid">
<style type="text/css">
  text {
    text-anchor: middle; font-size: 46px; opacity: 0;
  }
</style>
<g style="transform-origin:91.5px 29.5px;transform:scale(1)">
<g transform="translate(91.5,29.5)">
  <g transform="translate(0,0)"><g class="path" style="opacity: 1; transform-origin: -70.495px -4.04624px; animation: 2.08333s linear -1.22222s infinite normal forwards running fade-40a82292-c33b-4385-9310-cc91e3d41f4d;"><path d="M18.81 0L3.68 0L4.23-11.18L3.68-30.82L10.21-31.97L9.57-11.96L9.89-4.51L19.32-5.24L18.81 0" fill="#93dbe9" stroke="none" stroke-width="none" transform="translate(-81.9949951171875,11.938756612141924)" style="fill: rgb(147, 219, 233);"></path></g><g class="path" style="opacity: 1; transform-origin: -50.21px 0.303757px; animation: 2.08333s linear -1.06944s infinite normal forwards running fade-40a82292-c33b-4385-9310-cc91e3d41f4d;"><path d="M27.78 0L27.78 0L27.78 0Q25.30 0 23.76-1.63L23.76-1.63L23.76-1.63Q22.22-3.27 22.22-5.93L22.22-5.93L22.49-11.22L21.99-22.26L28.15-23.41L27.55-9.43L27.55-9.43Q27.55-7.45 28.27-6.53L28.27-6.53L28.27-6.53Q28.98-5.61 30.54-5.61L30.54-5.61L30.54-5.61Q32.11-5.61 34.87-7.18L34.87-7.18L34.87-9.94L34.36-22.03L40.57-23.18L40.02-11.68L40.07-7.91L40.07-7.91Q40.07-4.97 41.58-1.98L41.58-1.98L36.80 0.14L36.80 0.14Q35.28-2.85 34.96-4.65L34.96-4.65L34.96-4.65Q30.82 0 27.78 0" fill="#93dbe9" stroke="none" stroke-width="none" transform="translate(-81.9949951171875,11.938756612141924)" style="fill: rgb(104, 156, 197);"></path></g><g class="path" style="opacity: 1; transform-origin: -33.21px 0.233757px; animation: 2.08333s linear -0.916667s infinite normal forwards running fade-40a82292-c33b-4385-9310-cc91e3d41f4d;"><path d="M45.72-22.26L51.89-23.41L51.34-11.96L51.84-1.15L45.68 0L46.23-11.18L45.72-22.26" fill="#93dbe9" stroke="none" stroke-width="none" transform="translate(-81.9949951171875,11.938756612141924)" style="fill: rgb(94, 111, 163);"></path></g><g class="path" style="opacity: 1; transform-origin: -33.005px -18.4212px; animation: 2.08333s linear -0.763889s infinite normal forwards running fade-40a82292-c33b-4385-9310-cc91e3d41f4d;"><path d="M45.40-30.15L45.40-30.15L45.40-30.15Q45.40-31.69 46.60-32.91L46.60-32.91L46.60-32.91Q47.79-34.13 49.36-34.13L49.36-34.13L49.36-34.13Q50.92-34.13 51.75-33.28L51.75-33.28L51.75-33.28Q52.58-32.43 52.58-30.73L52.58-30.73L52.58-30.73Q52.58-29.03 51.41-27.81L51.41-27.81L51.41-27.81Q50.23-26.59 48.69-26.59L48.69-26.59L48.69-26.59Q47.15-26.59 46.28-27.60L46.28-27.60L46.28-27.60Q45.40-28.61 45.40-30.15" fill="#93dbe9" stroke="none" stroke-width="none" transform="translate(-81.9949951171875,11.938756612141924)" style="fill: rgb(59, 67, 104);"></path></g><g class="path" style="opacity: 1; transform-origin: -18.975px 0.348757px; animation: 2.08333s linear -0.611111s infinite normal forwards running fade-40a82292-c33b-4385-9310-cc91e3d41f4d;"><path d="M63.89-4.28L63.89-4.28L63.89-4.28Q66.29-4.28 66.29-6.39L66.29-6.39L66.29-6.39Q66.29-7.13 65.25-7.77L65.25-7.77L65.25-7.77Q64.22-8.42 62.72-9.06L62.72-9.06L62.72-9.06Q61.23-9.71 59.73-10.51L59.73-10.51L59.73-10.51Q58.24-11.32 57.20-12.74L57.20-12.74L57.20-12.74Q56.17-14.17 56.17-16.01L56.17-16.01L56.17-16.01Q56.17-19.09 58.88-21.39L58.88-21.39L58.88-21.39Q61.59-23.69 65.14-23.69L65.14-23.69L65.14-23.69Q66.79-23.69 68.38-23.30L68.38-23.30L68.38-23.30Q69.97-22.91 71.44-22.08L71.44-22.08L68.36-16.47L68.36-16.47Q68.03-16.74 67.53-17.16L67.53-17.16L67.53-17.16Q67.02-17.57 65.62-18.24L65.62-18.24L65.62-18.24Q64.22-18.91 63.14-18.91L63.14-18.91L63.14-18.91Q62.05-18.91 61.48-18.42L61.48-18.42L61.48-18.42Q60.90-17.94 60.90-17.09L60.90-17.09L60.90-17.09Q60.90-16.24 62.49-15.39L62.49-15.39L62.49-15.39Q64.08-14.54 65.96-13.82L65.96-13.82L65.96-13.82Q67.85-13.11 69.44-11.48L69.44-11.48L69.44-11.48Q71.02-9.84 71.02-7.59L71.02-7.59L71.02-7.59Q71.02-4.37 68.38-1.93L68.38-1.93L68.38-1.93Q65.73 0.51 62.28 0.51L62.28 0.51L62.28 0.51Q60.08 0.51 58.17-0.46L58.17-0.46L58.17-0.46Q56.26-1.43 55.43-2.39L55.43-2.39L54.60-3.36L58.24-7.59L58.24-7.59Q58.51-7.22 59.02-6.67L59.02-6.67L59.02-6.67Q59.52-6.12 61.02-5.20L61.02-5.20L61.02-5.20Q62.51-4.28 63.89-4.28" fill="#93dbe9" stroke="none" stroke-width="none" transform="translate(-81.9949951171875,11.938756612141924)" style="fill: rgb(25, 29, 58);"></path></g><g class="path" style="opacity: 1; transform-origin: 2.415px -3.93124px; animation: 2.08333s linear -0.458333s infinite normal forwards running fade-40a82292-c33b-4385-9310-cc91e3d41f4d;"><path d="M92.74-31.74L92.23-26.82L82.43-26.82L82.16-18.35L90.94-18.35L90.44-13.48L82.02-13.48L81.97-11.96L82.52 0L76.08 0L76.64-11.18L76.08-31.74L92.74-31.74" fill="#93dbe9" stroke="none" stroke-width="none" transform="translate(-81.9949951171875,11.938756612141924)" style="fill: rgb(217, 219, 238);"></path></g><g class="path" style="opacity: 1; transform-origin: 25.945px -3.90624px; animation: 2.08333s linear -0.305556s infinite normal forwards running fade-40a82292-c33b-4385-9310-cc91e3d41f4d;"><path d="M109.30-32.20L109.30-32.20L109.30-32.20Q114.72-32.20 118.24-28.06L118.24-28.06L118.24-28.06Q121.76-23.92 121.76-17.53L121.76-17.53L121.76-17.53Q121.76-9.43 117.58-4.46L117.58-4.46L117.58-4.46Q113.39 0.51 106.58 0.51L106.58 0.51L106.58 0.51Q101.29 0.51 97.70-3.75L97.70-3.75L97.70-3.75Q94.12-8.00 94.12-14.26L94.12-14.26L94.12-14.26Q94.12-22.08 98.39-27.14L98.39-27.14L98.39-27.14Q102.67-32.20 109.30-32.20zM115.51-14.95L115.51-14.95L115.51-14.95Q115.51-26.59 107.87-26.59L107.87-26.59L107.87-26.59Q104.37-26.59 102.37-23.99L102.37-23.99L102.37-23.99Q100.37-21.39 100.37-16.21L100.37-16.21L100.37-16.21Q100.37-11.04 102.51-7.71L102.51-7.71L102.51-7.71Q104.65-4.37 108.17-4.37L108.17-4.37L108.17-4.37Q111.69-4.37 113.60-7.20L113.60-7.20L113.60-7.20Q115.51-10.03 115.51-14.95" fill="#93dbe9" stroke="none" stroke-width="none" transform="translate(-81.9949951171875,11.938756612141924)" style="fill: rgb(179, 183, 226);"></path></g><g class="path" style="opacity: 1; transform-origin: 49.885px 0.348757px; animation: 2.08333s linear -0.152778s infinite normal forwards running fade-40a82292-c33b-4385-9310-cc91e3d41f4d;"><path d="M132.76-4.28L132.76-4.28L132.76-4.28Q135.15-4.28 135.15-6.39L135.15-6.39L135.15-6.39Q135.15-7.13 134.11-7.77L134.11-7.77L134.11-7.77Q133.08-8.42 131.58-9.06L131.58-9.06L131.58-9.06Q130.09-9.71 128.59-10.51L128.59-10.51L128.59-10.51Q127.10-11.32 126.06-12.74L126.06-12.74L126.06-12.74Q125.03-14.17 125.03-16.01L125.03-16.01L125.03-16.01Q125.03-19.09 127.74-21.39L127.74-21.39L127.74-21.39Q130.46-23.69 134.00-23.69L134.00-23.69L134.00-23.69Q135.65-23.69 137.24-23.30L137.24-23.30L137.24-23.30Q138.83-22.91 140.30-22.08L140.30-22.08L137.22-16.47L137.22-16.47Q136.90-16.74 136.39-17.16L136.39-17.16L136.39-17.16Q135.88-17.57 134.48-18.24L134.48-18.24L134.48-18.24Q133.08-18.91 132.00-18.91L132.00-18.91L132.00-18.91Q130.92-18.91 130.34-18.42L130.34-18.42L130.34-18.42Q129.77-17.94 129.77-17.09L129.77-17.09L129.77-17.09Q129.77-16.24 131.35-15.39L131.35-15.39L131.35-15.39Q132.94-14.54 134.83-13.82L134.83-13.82L134.83-13.82Q136.71-13.11 138.30-11.48L138.30-11.48L138.30-11.48Q139.89-9.84 139.89-7.59L139.89-7.59L139.89-7.59Q139.89-4.37 137.24-1.93L137.24-1.93L137.24-1.93Q134.60 0.51 131.15 0.51L131.15 0.51L131.15 0.51Q128.94 0.51 127.03-0.46L127.03-0.46L127.03-0.46Q125.12-1.43 124.29-2.39L124.29-2.39L123.46-3.36L127.10-7.59L127.10-7.59Q127.37-7.22 127.88-6.67L127.88-6.67L127.88-6.67Q128.39-6.12 129.88-5.20L129.88-5.20L129.88-5.20Q131.38-4.28 132.76-4.28" fill="#93dbe9" stroke="none" stroke-width="none" transform="translate(-81.9949951171875,11.938756612141924)" style="fill: rgb(147, 219, 233);"></path></g><g class="path" style="opacity: 1; transform-origin: 73.165px -3.93124px; animation: 2.08333s linear 0s infinite normal forwards running fade-40a82292-c33b-4385-9310-cc91e3d41f4d;"><path d="M156.03 0.51L156.03 0.51L156.03 0.51Q150.01 0.51 146.33-3.54L146.33-3.54L146.33-3.54Q142.65-7.59 142.65-14.26L142.65-14.26L142.65-14.26Q142.65-21.85 147.25-27.05L147.25-27.05L147.25-27.05Q151.85-32.25 158.56-32.25L158.56-32.25L158.56-32.25Q161.23-32.25 163.51-31.76L163.51-31.76L163.51-31.76Q165.78-31.28 166.75-30.77L166.75-30.77L167.67-30.27L165.00-23.87L165.00-23.87Q163.62-24.79 161.28-25.60L161.28-25.60L161.28-25.60Q158.93-26.40 157.14-26.40L157.14-26.40L157.14-26.40Q153.41-26.40 151.16-23.78L151.16-23.78L151.16-23.78Q148.90-21.16 148.90-16.84L148.90-16.84L148.90-16.84Q148.90-10.99 151.04-7.73L151.04-7.73L151.04-7.73Q153.18-4.46 157.00-4.46L157.00-4.46L157.00-4.46Q159.48-4.46 161.69-5.15L161.69-5.15L161.69-12.28L155.76-12.28L156.22-16.93L167.26-16.93L166.84-9.43L167.16-1.47L167.16-1.47Q160.40 0.51 156.03 0.51" fill="#93dbe9" stroke="none" stroke-width="none" transform="translate(-81.9949951171875,11.938756612141924)" style="fill: rgb(104, 156, 197);"></path></g></g>
</g>
</g>
<style id="fade-40a82292-c33b-4385-9310-cc91e3d41f4d" data-anikit="">@keyframes fade-40a82292-c33b-4385-9310-cc91e3d41f4d
{
  0% {
    animation-timing-function: cubic-bezier(0.2057,0.573,0.3723,0.9184);
    opacity: 1;
  }
  100% {
    opacity: 0;
  }
}</style></svg>
