<svg xmlns="http://www.w3.org/2000/svg" viewBox="0 0 400 400">
  <defs>
    <style>
      .cls-5{fill:#29577c}
    </style>
  </defs>
  <g style="isolation:isolate">
    <g id="Capa_1" data-name="Capa 1">
      <circle cx="200.43" cy="200.71" r="195.29" fill="#163f70" stroke="#1d1d1b" stroke-linecap="round" stroke-linejoin="round" stroke-width="5"/>
      <path d="m127.71 215.08-2.81-18.42-2.81-18.42-1-7.14-.7-7.28a113.42 113.42 0 0 1-1.06-14.56q0-16.57 4.92-29a34.26 34.26 0 0 1 6-9.14 47.78 47.78 0 0 1 11.14-9.12 36.93 36.93 0 0 1 19.66-5.85 38.71 38.71 0 0 1 14 2.71 26 26 0 0 1 13 10 23.79 23.79 0 0 1 2.81 6.28l1.05 3 .71 3q3.5 13.69 4.21 39l.7 17.56.7 17.57q.34 8.28.35 15.7 0 11.15-.7 20a212.36 212.36 0 0 1-5.26 35.56l-1.41 6.85a63 63 0 0 1-2.1 6.71l-.36 1.43q0 .28 29.84 1l11.23.15 10.53.28q11.22.29 11.93.29l6.32.14 6.31.14q7.72.28 13 .72 14.74 1.43 22.11 5.14c1.4.66 2.1 1.33 2.1 2q0 2-9.82 3.29-4.92.72-12.28 1.14c-1.65.19-3.4.34-5.27.43l-2.11.14h-1.74l-12.28.86-12.64.57q-16.14.72-24.57 1.29l-8.42.71-8.77.57q-10.18.57-17.55.71h-3.16q-18.6 0-30.18-3.28-9.14-2.56-13.69-7.85a24.08 24.08 0 0 1-4.21-9.57q-1.05-5.85-1.76-14.28l-.35-7.14-.35-7.14q-1.41-14.9-5.26-36.75Z"/>
      <path fill="#2663bc" stroke="#000" stroke-miterlimit="10" d="M290.79 158.64v32.97l52.49 15.9-52.49 27.15v27.15L365 218.37v-26.76l-74.21-32.97zM108.75 251.3l-.25-32.97-52.62-15.49 52.28-27.56-.21-27.15-73.87 44.02.21 26.76 74.46 32.39z"/>
      <circle cx="202.41" cy="356.13" r="19.93" class="cls-5"/>
      <path d="M35.59 235 68 242.68s25.47 102.93 101.9 95.09c7.2 31.3 7.2 35.29 7.2 35.29S45.63 348 35.59 235ZM364 240l-30.87 7.35s-24.25 98.94-97 91.41c-6.85 30.09-6.85 33.92-6.85 33.92S354.45 348.6 364 240Z" class="cls-5"/>
      <circle cx="197.97" cy="45.08" r="19.93" class="cls-5"/>
      <path d="m367.25 162.71-32.58-7s-27.59-102.38-103.84-93c-7.83-31.09-7.93-35.07-7.93-35.07S354.89 50 367.25 162.71ZM38.8 164.48l30.72-8s22.21-99.43 95.11-93.39c6.23-30.23 6.15-34.06 6.15-34.06S46.12 55.75 38.8 164.48Z" class="cls-5"/>
    </g>
  </g>
</svg>
